<svg xmlns="http://www.w3.org/2000/svg" version="1.1" width="650" height="130"><circle cx="30" cy="30" r="12" fill="none" stroke="#000" stroke_width="0.5" /><circle cx="30" cy="30" r="0.8" fill="#000" /><line id="c0_A" x1="30" y1="30" x2="30.0" y2="24.0" stroke="#000" stroke_width="1.5" stroke_linecap="round" /><line id="c0_B" x1="30" y1="30" x2="30.0" y2="19.8" stroke="#000" stroke_width="1" stroke_linecap="round" /><circle cx="70" cy="30" r="12" fill="none" stroke="#000" stroke_width="0.5" /><circle cx="70" cy="30" r="0.8" fill="#000" /><line id="c1_A" x1="70" y1="30" x2="70.0" y2="24.0" stroke="#000" stroke_width="1.5" stroke_linecap="round" /><line id="c1_B" x1="70" y1="30" x2="77.21248916810279" y2="22.787510831897215" stroke="#000" stroke_width="1" stroke_linecap="round" /><circle cx="110" cy="30" r="12" fill="none" stroke="#000" stroke_width="0.5" /><circle cx="110" cy="30" r="0.8" fill="#000" /><line id="c2_A" x1="110" y1="30" x2="114.24264068711929" y2="34.242640687119284" stroke="#000" stroke_width="1.5" stroke_linecap="round" /><line id="c2_B" x1="110" y1="30" x2="102.78751083189722" y2="37.212489168102785" stroke="#000" stroke_width="1" stroke_linecap="round" /><circle cx="150" cy="30" r="12" fill="none" stroke="#000" stroke_width="0.5" /><circle cx="150" cy="30" r="0.8" fill="#000" /><line id="c3_A" x1="150" y1="30" x2="150.0" y2="24.0" stroke="#000" stroke_width="1.5" stroke_linecap="round" /><line id="c3_B" x1="150" y1="30" x2="157.2124891681028" y2="37.212489168102785" stroke="#000" stroke_width="1" stroke_linecap="round" /><circle cx="190" cy="30" r="12" fill="none" stroke="#000" stroke_width="0.5" /><circle cx="190" cy="30" r="0.8" fill="#000" /><line id="c4_A" x1="190" y1="30" x2="196.0" y2="30.0" stroke="#000" stroke_width="1.5" stroke_linecap="round" /><line id="c4_B" x1="190" y1="30" x2="190.0" y2="40.2" stroke="#000" stroke_width="1" stroke_linecap="round" /><circle cx="230" cy="30" r="12" fill="none" stroke="#000" stroke_width="0.5" /><circle cx="230" cy="30" r="0.8" fill="#000" /><line id="c5_A" x1="230" y1="30" x2="224.0" y2="30.0" stroke="#000" stroke_width="1.5" stroke_linecap="round" /><line id="c5_B" x1="230" y1="30" x2="222.7875108318972" y2="22.787510831897215" stroke="#000" stroke_width="1" stroke_linecap="round" /><circle cx="270" cy="30" r="12" fill="none" stroke="#000" stroke_width="0.5" /><circle cx="270" cy="30" r="0.8" fill="#000" /><line id="c6_A" x1="270" y1="30" x2="265.75735931288074" y2="34.242640687119284" stroke="#000" stroke_width="1.5" stroke_linecap="round" /><line id="c6_B" x1="270" y1="30" x2="262.78751083189724" y2="37.212489168102785" stroke="#000" stroke_width="1" stroke_linecap="round" /><circle cx="310" cy="30" r="12" fill="none" stroke="#000" stroke_width="0.5" /><circle cx="310" cy="30" r="0.8" fill="#000" /><line id="c7_A" x1="310" y1="30" x2="314.24264068711926" y2="25.757359312880716" stroke="#000" stroke_width="1.5" stroke_linecap="round" /><line id="c7_B" x1="310" y1="30" x2="310.0" y2="19.8" stroke="#000" stroke_width="1" stroke_linecap="round" /><circle cx="350" cy="30" r="12" fill="none" stroke="#000" stroke_width="0.5" /><circle cx="350" cy="30" r="0.8" fill="#000" /><line id="c8_A" x1="350" y1="30" x2="354.24264068711926" y2="34.242640687119284" stroke="#000" stroke_width="1.5" stroke_linecap="round" /><line id="c8_B" x1="350" y1="30" x2="350.0" y2="19.8" stroke="#000" stroke_width="1" stroke_linecap="round" /><circle cx="390" cy="30" r="12" fill="none" stroke="#000" stroke_width="0.5" /><circle cx="390" cy="30" r="0.8" fill="#000" /><line id="c9_A" x1="390" y1="30" x2="396.0" y2="30.0" stroke="#000" stroke_width="1.5" stroke_linecap="round" /><line id="c9_B" x1="390" y1="30" x2="379.8" y2="30.0" stroke="#000" stroke_width="1" stroke_linecap="round" /><circle cx="430" cy="30" r="12" fill="none" stroke="#000" stroke_width="0.5" /><circle cx="430" cy="30" r="0.8" fill="#000" /><line id="c10_A" x1="430" y1="30" x2="434.24264068711926" y2="25.757359312880716" stroke="#000" stroke_width="1.5" stroke_linecap="round" /><line id="c10_B" x1="430" y1="30" x2="422.78751083189724" y2="37.212489168102785" stroke="#000" stroke_width="1" stroke_linecap="round" /><circle cx="470" cy="30" r="12" fill="none" stroke="#000" stroke_width="0.5" /><circle cx="470" cy="30" r="0.8" fill="#000" /><line id="c11_A" x1="470" y1="30" x2="465.75735931288074" y2="34.242640687119284" stroke="#000" stroke_width="1.5" stroke_linecap="round" /><line id="c11_B" x1="470" y1="30" x2="477.21248916810276" y2="37.212489168102785" stroke="#000" stroke_width="1" stroke_linecap="round" /><circle cx="510" cy="30" r="12" fill="none" stroke="#000" stroke_width="0.5" /><circle cx="510" cy="30" r="0.8" fill="#000" /><line id="c12_A" x1="510" y1="30" x2="514.2426406871193" y2="25.757359312880716" stroke="#000" stroke_width="1.5" stroke_linecap="round" /><line id="c12_B" x1="510" y1="30" x2="510.0" y2="40.2" stroke="#000" stroke_width="1" stroke_linecap="round" /><circle cx="550" cy="30" r="12" fill="none" stroke="#000" stroke_width="0.5" /><circle cx="550" cy="30" r="0.8" fill="#000" /><line id="c13_A" x1="550" y1="30" x2="544.0" y2="30.0" stroke="#000" stroke_width="1.5" stroke_linecap="round" /><line id="c13_B" x1="550" y1="30" x2="542.7875108318972" y2="22.787510831897215" stroke="#000" stroke_width="1" stroke_linecap="round" /><circle cx="590" cy="30" r="12" fill="none" stroke="#000" stroke_width="0.5" /><circle cx="590" cy="30" r="0.8" fill="#000" /><line id="c14_A" x1="590" y1="30" x2="594.2426406871193" y2="25.757359312880716" stroke="#000" stroke_width="1.5" stroke_linecap="round" /><line id="c14_B" x1="590" y1="30" x2="597.2124891681028" y2="22.787510831897215" stroke="#000" stroke_width="1" stroke_linecap="round" /><circle cx="630" cy="30" r="12" fill="none" stroke="#000" stroke_width="0.5" /><circle cx="630" cy="30" r="0.8" fill="#000" /><line id="c15_A" x1="630" y1="30" x2="634.2426406871193" y2="34.242640687119284" stroke="#000" stroke_width="1.5" stroke_linecap="round" /><line id="c15_B" x1="630" y1="30" x2="622.7875108318972" y2="22.787510831897215" stroke="#000" stroke_width="1" stroke_linecap="round" /><circle cx="30" cy="70" r="12" fill="none" stroke="#000" stroke_width="0.5" /><circle cx="30" cy="70" r="0.8" fill="#000" /><line id="c16_A" x1="30" y1="70" x2="36.0" y2="70.0" stroke="#000" stroke_width="1.5" stroke_linecap="round" /><line id="c16_B" x1="30" y1="70" x2="30.0" y2="59.8" stroke="#000" stroke_width="1" stroke_linecap="round" /><circle cx="70" cy="70" r="12" fill="none" stroke="#000" stroke_width="0.5" /><circle cx="70" cy="70" r="0.8" fill="#000" /><line id="c17_A" x1="70" y1="70" x2="64.0" y2="70.0" stroke="#000" stroke_width="1.5" stroke_linecap="round" /><line id="c17_B" x1="70" y1="70" x2="77.21248916810279" y2="77.21248916810278" stroke="#000" stroke_width="1" stroke_linecap="round" /><circle cx="110" cy="70" r="12" fill="none" stroke="#000" stroke_width="0.5" /><circle cx="110" cy="70" r="0.8" fill="#000" /><line id="c18_A" x1="110" y1="70" x2="116.0" y2="70.0" stroke="#000" stroke_width="1.5" stroke_linecap="round" /><line id="c18_B" x1="110" y1="70" x2="117.21248916810279" y2="62.787510831897215" stroke="#000" stroke_width="1" stroke_linecap="round" /><circle cx="150" cy="70" r="12" fill="none" stroke="#000" stroke_width="0.5" /><circle cx="150" cy="70" r="0.8" fill="#000" /><line id="c19_A" x1="150" y1="70" x2="154.2426406871193" y2="65.75735931288071" stroke="#000" stroke_width="1.5" stroke_linecap="round" /><line id="c19_B" x1="150" y1="70" x2="139.8" y2="70.0" stroke="#000" stroke_width="1" stroke_linecap="round" /><circle cx="190" cy="70" r="12" fill="none" stroke="#000" stroke_width="0.5" /><circle cx="190" cy="70" r="0.8" fill="#000" /><line id="c20_A" x1="190" y1="70" x2="196.0" y2="70.0" stroke="#000" stroke_width="1.5" stroke_linecap="round" /><line id="c20_B" x1="190" y1="70" x2="182.7875108318972" y2="62.787510831897215" stroke="#000" stroke_width="1" stroke_linecap="round" /><circle cx="230" cy="70" r="12" fill="none" stroke="#000" stroke_width="0.5" /><circle cx="230" cy="70" r="0.8" fill="#000" /><line id="c21_A" x1="230" y1="70" x2="224.0" y2="70.0" stroke="#000" stroke_width="1.5" stroke_linecap="round" /><line id="c21_B" x1="230" y1="70" x2="230.0" y2="80.2" stroke="#000" stroke_width="1" stroke_linecap="round" /><circle cx="270" cy="70" r="12" fill="none" stroke="#000" stroke_width="0.5" /><circle cx="270" cy="70" r="0.8" fill="#000" /><line id="c22_A" x1="270" y1="70" x2="274.24264068711926" y2="74.24264068711929" stroke="#000" stroke_width="1.5" stroke_linecap="round" /><line id="c22_B" x1="270" y1="70" x2="270.0" y2="59.8" stroke="#000" stroke_width="1" stroke_linecap="round" /><circle cx="310" cy="70" r="12" fill="none" stroke="#000" stroke_width="0.5" /><circle cx="310" cy="70" r="0.8" fill="#000" /><line id="c23_A" x1="310" y1="70" x2="304.0" y2="70.0" stroke="#000" stroke_width="1.5" stroke_linecap="round" /><line id="c23_B" x1="310" y1="70" x2="317.21248916810276" y2="62.787510831897215" stroke="#000" stroke_width="1" stroke_linecap="round" /><circle cx="350" cy="70" r="12" fill="none" stroke="#000" stroke_width="0.5" /><circle cx="350" cy="70" r="0.8" fill="#000" /><line id="c24_A" x1="350" y1="70" x2="354.24264068711926" y2="74.24264068711929" stroke="#000" stroke_width="1.5" stroke_linecap="round" /><line id="c24_B" x1="350" y1="70" x2="357.21248916810276" y2="77.21248916810278" stroke="#000" stroke_width="1" stroke_linecap="round" /><circle cx="390" cy="70" r="12" fill="none" stroke="#000" stroke_width="0.5" /><circle cx="390" cy="70" r="0.8" fill="#000" /><line id="c25_A" x1="390" y1="70" x2="390.0" y2="76.0" stroke="#000" stroke_width="1.5" stroke_linecap="round" /><line id="c25_B" x1="390" y1="70" x2="379.8" y2="70.0" stroke="#000" stroke_width="1" stroke_linecap="round" /><circle cx="430" cy="70" r="12" fill="none" stroke="#000" stroke_width="0.5" /><circle cx="430" cy="70" r="0.8" fill="#000" /><line id="c26_A" x1="430" y1="70" x2="436.0" y2="70.0" stroke="#000" stroke_width="1.5" stroke_linecap="round" /><line id="c26_B" x1="430" y1="70" x2="437.21248916810276" y2="62.787510831897215" stroke="#000" stroke_width="1" stroke_linecap="round" /><circle cx="470" cy="70" r="12" fill="none" stroke="#000" stroke_width="0.5" /><circle cx="470" cy="70" r="0.8" fill="#000" /><line id="c27_A" x1="470" y1="70" x2="474.24264068711926" y2="74.24264068711929" stroke="#000" stroke_width="1.5" stroke_linecap="round" /><line id="c27_B" x1="470" y1="70" x2="462.78751083189724" y2="62.787510831897215" stroke="#000" stroke_width="1" stroke_linecap="round" /><circle cx="510" cy="70" r="12" fill="none" stroke="#000" stroke_width="0.5" /><circle cx="510" cy="70" r="0.8" fill="#000" /><line id="c28_A" x1="510" y1="70" x2="516.0" y2="70.0" stroke="#000" stroke_width="1.5" stroke_linecap="round" /><line id="c28_B" x1="510" y1="70" x2="499.8" y2="70.0" stroke="#000" stroke_width="1" stroke_linecap="round" /><circle cx="550" cy="70" r="12" fill="none" stroke="#000" stroke_width="0.5" /><circle cx="550" cy="70" r="0.8" fill="#000" /><line id="c29_A" x1="550" y1="70" x2="556.0" y2="70.0" stroke="#000" stroke_width="1.5" stroke_linecap="round" /><line id="c29_B" x1="550" y1="70" x2="557.2124891681028" y2="77.21248916810278" stroke="#000" stroke_width="1" stroke_linecap="round" /><circle cx="590" cy="70" r="12" fill="none" stroke="#000" stroke_width="0.5" /><circle cx="590" cy="70" r="0.8" fill="#000" /><line id="c30_A" x1="590" y1="70" x2="590.0" y2="64.0" stroke="#000" stroke_width="1.5" stroke_linecap="round" /><line id="c30_B" x1="590" y1="70" x2="597.2124891681028" y2="62.787510831897215" stroke="#000" stroke_width="1" stroke_linecap="round" /><circle cx="630" cy="70" r="12" fill="none" stroke="#000" stroke_width="0.5" /><circle cx="630" cy="70" r="0.8" fill="#000" /><line id="c31_A" x1="630" y1="70" x2="636.0" y2="70.0" stroke="#000" stroke_width="1.5" stroke_linecap="round" /><line id="c31_B" x1="630" y1="70" x2="622.7875108318972" y2="77.21248916810279" stroke="#000" stroke_width="1" stroke_linecap="round" /><circle cx="30" cy="110" r="12" fill="none" stroke="#000" stroke_width="0.5" /><circle cx="30" cy="110" r="0.8" fill="#000" /><line id="c32_A" x1="30" y1="110" x2="34.242640687119284" y2="114.24264068711929" stroke="#000" stroke_width="1.5" stroke_linecap="round" /><line id="c32_B" x1="30" y1="110" x2="22.787510831897215" y2="102.78751083189722" stroke="#000" stroke_width="1" stroke_linecap="round" /><circle cx="70" cy="110" r="12" fill="none" stroke="#000" stroke_width="0.5" /><circle cx="70" cy="110" r="0.8" fill="#000" /><line id="c33_A" x1="70" y1="110" x2="76.0" y2="110.0" stroke="#000" stroke_width="1.5" stroke_linecap="round" /><line id="c33_B" x1="70" y1="110" x2="70.0" y2="99.8" stroke="#000" stroke_width="1" stroke_linecap="round" /></svg>